<?xml version="1.0" encoding="UTF-8" standalone="no"?>
<svg xmlns="http://www.w3.org/2000/svg"
     xmlns:xlink="http://www.w3.org/1999/xlink"
     width="576px" height="432px" viewBox="0 0 576 432">
<title>gl2ps_renderer figure</title>
<desc>
Creator: GL2PS 1.3.8, (C) 1999-2012 C. Geuzaine
For: Octave
CreationDate: Thu Oct 19 13:02:26 2017
</desc>
<defs>
</defs>
<polygon fill="#ffffff" points="0,0 576,0 576,432 0,432"/>
<g shape-rendering="crispEdges">
<polygon fill="#ffffff" points="0,432 576,432 576,0 0,0"/>
<clipPath id="cp00576432">
  <polygon points="0,432 576,432 576,0 0,0"/>
</clipPath>
<g clip-path="url(#cp00576432)">
<polygon fill="#ffffff" points="74.88,384.48 521.28,384.48 74.88,32.4"/>
<polygon fill="#ffffff" points="521.28,384.48 521.28,32.4 74.88,32.4"/>
<polyline fill="none" stroke="#262626" stroke-width="0.5" points="74.88,384.48 74.88,380.015"/>
<polyline fill="none" stroke="#262626" stroke-width="0.5" points="164.16,384.48 164.16,380.015"/>
<polyline fill="none" stroke="#262626" stroke-width="0.5" points="253.44,384.48 253.44,380.015"/>
<polyline fill="none" stroke="#262626" stroke-width="0.5" points="342.72,384.48 342.72,380.015"/>
<polyline fill="none" stroke="#262626" stroke-width="0.5" points="432,384.48 432,380.015"/>
<polyline fill="none" stroke="#262626" stroke-width="0.5" points="521.28,384.48 521.28,380.015"/>
<text fill="#262626" x="74.88" y="389.481" font-size="10" text-anchor="middle" baseline-shift="-10" font-family="Helvetica">0</text>
<text fill="#262626" x="164.16" y="389.481" font-size="10" text-anchor="middle" baseline-shift="-10" font-family="Helvetica">1</text>
<text fill="#262626" x="253.44" y="389.481" font-size="10" text-anchor="middle" baseline-shift="-10" font-family="Helvetica">2</text>
<text fill="#262626" x="342.72" y="389.481" font-size="10" text-anchor="middle" baseline-shift="-10" font-family="Helvetica">3</text>
<text fill="#262626" x="432" y="389.481" font-size="10" text-anchor="middle" baseline-shift="-10" font-family="Helvetica">4</text>
<text fill="#262626" x="521.28" y="389.481" font-size="10" text-anchor="middle" baseline-shift="-10" font-family="Helvetica">5</text>
<polyline fill="none" stroke="#262626" stroke-width="0.5" points="74.88,384.48 79.348,384.48"/>
<polyline fill="none" stroke="#262626" stroke-width="0.5" points="74.88,314.064 79.348,314.064"/>
<polyline fill="none" stroke="#262626" stroke-width="0.5" points="74.88,243.648 79.348,243.648"/>
<polyline fill="none" stroke="#262626" stroke-width="0.5" points="74.88,173.232 79.348,173.232"/>
<polyline fill="none" stroke="#262626" stroke-width="0.5" points="74.88,102.816 79.348,102.816"/>
<polyline fill="none" stroke="#262626" stroke-width="0.5" points="74.88,32.4 79.348,32.4"/>
<text fill="#262626" x="69.8755" y="384.48" font-size="10" text-anchor="end" baseline-shift="-5" font-family="Helvetica">0</text>
<text fill="#262626" x="69.8755" y="314.064" font-size="10" text-anchor="end" baseline-shift="-5" font-family="Helvetica">0.2</text>
<text fill="#262626" x="69.8755" y="243.648" font-size="10" text-anchor="end" baseline-shift="-5" font-family="Helvetica">0.4</text>
<text fill="#262626" x="69.8755" y="173.232" font-size="10" text-anchor="end" baseline-shift="-5" font-family="Helvetica">0.6</text>
<text fill="#262626" x="69.8755" y="102.816" font-size="10" text-anchor="end" baseline-shift="-5" font-family="Helvetica">0.8</text>
<text fill="#262626" x="69.8755" y="32.4" font-size="10" text-anchor="end" baseline-shift="-5" font-family="Helvetica">1</text>
<polyline fill="none" stroke="#262626" stroke-width="0.5" stroke-dasharray="16,0" points="74.88,384.48 521.28,384.48"/>
<polyline fill="none" stroke="#262626" stroke-width="0.5" stroke-dasharray="16,0" points="74.88,384.48 74.88,32.4"/>
<polyline fill="none" stroke="#0000ff" stroke-width="3" points="164.16,334.658 164.16,308.039"/>
<polyline fill="none" stroke="#0000ff" stroke-width="3" points="161.482,308.039 166.838,308.039"/>
<polyline fill="none" stroke="#0000ff" stroke-width="3" points="161.482,334.658 166.838,334.658"/>
<polyline fill="none" stroke="#0000ff" stroke-width="3" points="253.44,289.749 253.44,179.741"/>
<polyline fill="none" stroke="#0000ff" stroke-width="3" points="250.762,179.741 256.118,179.741"/>
<polyline fill="none" stroke="#0000ff" stroke-width="3" points="250.762,289.749 256.118,289.749"/>
<polyline fill="none" stroke="#0000ff" stroke-width="3" points="342.72,347.456 342.72,266.104"/>
<polyline fill="none" stroke="#0000ff" stroke-width="3" points="340.042,266.104 345.398,266.104"/>
<polyline fill="none" stroke="#0000ff" stroke-width="3" points="340.042,347.456 345.398,347.456"/>
<polyline fill="none" stroke="#0000ff" stroke-width="3" points="432,340.29 432,305.644"/>
<polyline fill="none" stroke="#0000ff" stroke-width="3" points="429.322,305.644 434.678,305.644"/>
<polyline fill="none" stroke="#0000ff" stroke-width="3" points="429.322,340.29 434.678,340.29"/>
<polygon fill="#0000ff" points="164.66,322.214 163.66,322.214 165.16,321.348"/>
<polygon fill="#0000ff" points="163.66,322.214 163.16,321.348 165.16,321.348"/>
<polygon fill="#0000ff" points="163.16,321.348 163.66,320.482 165.16,321.348"/>
<polygon fill="#0000ff" points="163.66,320.482 164.66,320.482 165.16,321.348"/>
<polygon fill="#0000ff" points="164.66,320.482 165.16,321.348 165.16,321.348"/>
<polygon fill="#0000ff" points="253.94,235.611 252.94,235.611 254.44,234.745"/>
<polygon fill="#0000ff" points="252.94,235.611 252.44,234.745 254.44,234.745"/>
<polygon fill="#0000ff" points="252.44,234.745 252.94,233.879 254.44,234.745"/>
<polygon fill="#0000ff" points="252.94,233.879 253.94,233.879 254.44,234.745"/>
<polygon fill="#0000ff" points="253.94,233.879 254.44,234.745 254.44,234.745"/>
<polygon fill="#0000ff" points="343.22,307.646 342.22,307.646 343.72,306.78"/>
<polygon fill="#0000ff" points="342.22,307.646 341.72,306.78 343.72,306.78"/>
<polygon fill="#0000ff" points="341.72,306.78 342.22,305.914 343.72,306.78"/>
<polygon fill="#0000ff" points="342.22,305.914 343.22,305.914 343.72,306.78"/>
<polygon fill="#0000ff" points="343.22,305.914 343.72,306.78 343.72,306.78"/>
<polygon fill="#0000ff" points="432.5,323.833 431.5,323.833 433,322.967"/>
<polygon fill="#0000ff" points="431.5,323.833 431,322.967 433,322.967"/>
<polygon fill="#0000ff" points="431,322.967 431.5,322.101 433,322.967"/>
<polygon fill="#0000ff" points="431.5,322.101 432.5,322.101 433,322.967"/>
<polygon fill="#0000ff" points="432.5,322.101 433,322.967 433,322.967"/>
<polyline fill="none" stroke="#000000" stroke-width="3" points="164.16,366.035 164.16,341.412"/>
<polyline fill="none" stroke="#000000" stroke-width="3" points="161.482,341.412 166.838,341.412"/>
<polyline fill="none" stroke="#000000" stroke-width="3" points="161.482,366.035 166.838,366.035"/>
<polyline fill="none" stroke="#000000" stroke-width="3" points="253.44,135.833 253.44,81.13"/>
<polyline fill="none" stroke="#000000" stroke-width="3" points="250.762,81.13 256.118,81.13"/>
<polyline fill="none" stroke="#000000" stroke-width="3" points="250.762,135.833 256.118,135.833"/>
<polyline fill="none" stroke="#000000" stroke-width="3" points="342.72,376.831 342.72,361.373"/>
<polyline fill="none" stroke="#000000" stroke-width="3" points="340.042,361.373 345.398,361.373"/>
<polyline fill="none" stroke="#000000" stroke-width="3" points="340.042,376.831 345.398,376.831"/>
<polyline fill="none" stroke="#000000" stroke-width="3" points="432,366.844 432,342.222"/>
<polyline fill="none" stroke="#000000" stroke-width="3" points="429.322,342.222 434.678,342.222"/>
<polyline fill="none" stroke="#000000" stroke-width="3" points="429.322,366.844 434.678,366.844"/>
<polygon fill="#000000" points="164.66,354.59 163.66,354.59 165.16,353.724"/>
<polygon fill="#000000" points="163.66,354.59 163.16,353.724 165.16,353.724"/>
<polygon fill="#000000" points="163.16,353.724 163.66,352.858 165.16,353.724"/>
<polygon fill="#000000" points="163.66,352.858 164.66,352.858 165.16,353.724"/>
<polygon fill="#000000" points="164.66,352.858 165.16,353.724 165.16,353.724"/>
<polygon fill="#000000" points="253.94,109.348 252.94,109.348 254.44,108.482"/>
<polygon fill="#000000" points="252.94,109.348 252.44,108.482 254.44,108.482"/>
<polygon fill="#000000" points="252.44,108.482 252.94,107.616 254.44,108.482"/>
<polygon fill="#000000" points="252.94,107.616 253.94,107.616 254.44,108.482"/>
<polygon fill="#000000" points="253.94,107.616 254.44,108.482 254.44,108.482"/>
<polygon fill="#000000" points="343.22,369.968 342.22,369.968 343.72,369.102"/>
<polygon fill="#000000" points="342.22,369.968 341.72,369.102 343.72,369.102"/>
<polygon fill="#000000" points="341.72,369.102 342.22,368.236 343.72,369.102"/>
<polygon fill="#000000" points="342.22,368.236 343.22,368.236 343.72,369.102"/>
<polygon fill="#000000" points="343.22,368.236 343.72,369.102 343.72,369.102"/>
<polygon fill="#000000" points="432.5,355.399 431.5,355.399 433,354.533"/>
<polygon fill="#000000" points="431.5,355.399 431,354.533 433,354.533"/>
<polygon fill="#000000" points="431,354.533 431.5,353.667 433,354.533"/>
<polygon fill="#000000" points="431.5,353.667 432.5,353.667 433,354.533"/>
<polygon fill="#000000" points="432.5,353.667 433,354.533 433,354.533"/>
</g>
</g>
</svg>
